<?xml version="1.0" encoding="utf-8"?>
<!-- Generator: Adobe Illustrator 16.0.0, SVG Export Plug-In . SVG Version: 6.00 Build 0)  -->
<!DOCTYPE svg PUBLIC "-//W3C//DTD SVG 1.0//EN" "http://www.w3.org/TR/2001/REC-SVG-20010904/DTD/svg10.dtd">
<svg version="1.0" id="Layer_1" xmlns="http://www.w3.org/2000/svg" xmlns:xlink="http://www.w3.org/1999/xlink" x="0px" y="0px"
	 width="12px" height="12px" viewBox="0 0 12 12" enable-background="new 0 0 12 12" xml:space="preserve">
<rect fill="#0787C9" width="12" height="12"/>
<g>
	<path fill="#FFFFFF" d="M3.99,2.911C3.868,2.592,3.645,2.432,3.322,2.432c-0.179,0-0.326,0.065-0.442,0.195
		C2.763,2.758,2.673,2.97,2.607,3.263C2.541,3.557,2.494,3.939,2.468,4.414C2.442,4.887,2.429,5.467,2.429,6.152
		c0,0.73,0.019,1.321,0.054,1.773c0.038,0.451,0.093,0.801,0.17,1.048c0.075,0.248,0.17,0.415,0.287,0.501
		c0.115,0.086,0.25,0.13,0.402,0.13c0.125,0,0.242-0.031,0.352-0.09c0.109-0.06,0.204-0.176,0.283-0.353
		c0.079-0.176,0.142-0.423,0.189-0.743C4.21,8.1,4.234,7.678,4.234,7.153h1.428c0,0.524-0.03,1.019-0.089,1.488
		c-0.06,0.469-0.17,0.88-0.333,1.23c-0.162,0.354-0.39,0.629-0.684,0.827c-0.295,0.198-0.677,0.298-1.146,0.298
		c-0.536,0-0.963-0.117-1.281-0.352c-0.317-0.234-0.561-0.572-0.729-1.017c-0.169-0.44-0.278-0.968-0.327-1.583
		C1.024,7.434,1,6.756,1,6.017c0-0.729,0.024-1.405,0.075-2.022c0.049-0.617,0.158-1.148,0.327-1.59
		C1.57,1.962,1.813,1.617,2.13,1.369c0.318-0.248,0.745-0.372,1.281-0.372c0.508,0,0.91,0.112,1.204,0.337
		c0.294,0.227,0.516,0.514,0.66,0.861c0.146,0.346,0.236,0.721,0.273,1.121C5.584,3.72,5.603,4.096,5.603,4.447H4.175
		C4.175,3.744,4.113,3.232,3.99,2.911z"/>
	<path fill="#FFFFFF" d="M7.904,1.051v3.805H9.57V1.051H11v9.953H9.57V6.586H7.904v4.418H6.476V1.051H7.904z"/>
</g>
</svg>
