<?xml version="1.0" encoding="utf-8"?>
<!-- Generator: Adobe Illustrator 16.0.0, SVG Export Plug-In . SVG Version: 6.00 Build 0)  -->
<!DOCTYPE svg PUBLIC "-//W3C//DTD SVG 1.0//EN" "http://www.w3.org/TR/2001/REC-SVG-20010904/DTD/svg10.dtd">
<svg version="1.0" id="Layer_1" xmlns="http://www.w3.org/2000/svg" xmlns:xlink="http://www.w3.org/1999/xlink" x="0px" y="0px"
	 width="12px" height="12px" viewBox="0 0 12 12" enable-background="new 0 0 12 12" xml:space="preserve">
<path fill="#010101" d="M6,0C2.687,0,0,2.687,0,6c0,3.314,2.687,6,6,6s6-2.686,6-6C12,2.687,9.313,0,6,0z M6.016,1.558
	c0.524,0,0.952,0.428,0.952,0.952S6.54,3.462,6.016,3.462S5.063,3.034,5.063,2.51S5.491,1.558,6.016,1.558z M7.734,10.442H4.266
	V9.541h0.807V4.876H4.281V3.975H6.97v5.566h0.765V10.442z"/>
</svg>
