<?xml version="1.0" encoding="utf-8"?>
<!-- Generator: Adobe Illustrator 16.0.0, SVG Export Plug-In . SVG Version: 6.00 Build 0)  -->
<!DOCTYPE svg PUBLIC "-//W3C//DTD SVG 1.1//EN" "http://www.w3.org/Graphics/SVG/1.1/DTD/svg11.dtd">
<svg version="1.1" id="Capa_1" xmlns="http://www.w3.org/2000/svg" xmlns:xlink="http://www.w3.org/1999/xlink" x="0px" y="0px"
	 width="14.146px" height="14px" viewBox="12.86 13.079 14.146 14" enable-background="new 12.86 13.079 14.146 14"
	 xml:space="preserve">
<path fill="#FFFFFF" d="M23.127,20.282l3.519,3.521c0.284,0.283,0.284,0.746,0,1.029l-2.033,2.034
	c-0.136,0.136-0.32,0.212-0.515,0.212c-0.195,0-0.378-0.075-0.515-0.212l-3.521-3.521c-0.068-0.069-0.19-0.069-0.258,0l-3.521,3.521
	c-0.137,0.136-0.32,0.212-0.515,0.212c-0.195,0-0.378-0.075-0.516-0.212l-2.032-2.034c-0.138-0.138-0.215-0.32-0.215-0.516
	c0-0.192,0.076-0.376,0.215-0.514l3.521-3.521c0.07-0.07,0.07-0.188,0-0.258l-3.67-3.669c-0.137-0.137-0.212-0.319-0.212-0.515
	s0.075-0.378,0.212-0.515l2.033-2.034c0.137-0.137,0.32-0.213,0.515-0.213c0.193,0,0.377,0.076,0.516,0.213l3.669,3.671
	c0.068,0.068,0.189,0.068,0.256,0l3.669-3.671c0.138-0.137,0.32-0.213,0.516-0.213c0.194,0,0.377,0.076,0.515,0.213l2.034,2.034
	c0.137,0.137,0.213,0.321,0.213,0.515s-0.075,0.377-0.213,0.515l-3.669,3.669C23.057,20.094,23.057,20.213,23.127,20.282z"/>
</svg>
