<?xml version="1.0" encoding="utf-8"?>
<!-- Generator: Adobe Illustrator 16.0.0, SVG Export Plug-In . SVG Version: 6.00 Build 0)  -->
<!DOCTYPE svg PUBLIC "-//W3C//DTD SVG 1.0//EN" "http://www.w3.org/TR/2001/REC-SVG-20010904/DTD/svg10.dtd">
<svg version="1.0" id="Layer_1" xmlns="http://www.w3.org/2000/svg" xmlns:xlink="http://www.w3.org/1999/xlink" x="0px" y="0px"
	 width="12px" height="12px" viewBox="0 0 12 12" enable-background="new 0 0 12 12" xml:space="preserve">
<rect y="0" fill="#0787C9" width="11.999" height="12"/>
<g>
	<path fill="#FFFFFF" d="M5.213,1v1.654H2.521v2.352h2.534v1.652H2.521V11H1V1H5.213z"/>
	<path fill="#FFFFFF" d="M8.697,1c0.634,0,1.127,0.213,1.479,0.639c0.352,0.424,0.528,1.07,0.528,1.939
		c0,0.672-0.103,1.221-0.307,1.645c-0.204,0.426-0.521,0.699-0.951,0.82V6.07c0.381,0.076,0.658,0.238,0.835,0.49
		c0.176,0.252,0.285,0.658,0.327,1.219c0.014,0.188,0.025,0.391,0.032,0.609c0.007,0.221,0.014,0.465,0.021,0.736
		c0.014,0.531,0.034,0.938,0.062,1.217c0.042,0.281,0.134,0.473,0.274,0.576V11H9.353c-0.078-0.139-0.128-0.301-0.148-0.482
		c-0.021-0.182-0.035-0.371-0.042-0.566L9.12,8.031C9.105,7.641,9.031,7.332,8.897,7.107C8.765,6.883,8.539,6.771,8.222,6.771H7.409
		V11H5.889V1H8.697z M8.043,5.371c0.365,0,0.647-0.115,0.845-0.344c0.196-0.229,0.295-0.613,0.295-1.154
		c0-0.926-0.352-1.387-1.056-1.387H7.409v2.885H8.043z"/>
</g>
</svg>
