<?xml version="1.0" encoding="utf-8"?>
<!-- Generator: Adobe Illustrator 16.0.0, SVG Export Plug-In . SVG Version: 6.00 Build 0)  -->
<!DOCTYPE svg PUBLIC "-//W3C//DTD SVG 1.1//EN" "http://www.w3.org/Graphics/SVG/1.1/DTD/svg11.dtd">
<svg version="1.1" id="Capa_1" xmlns="http://www.w3.org/2000/svg" xmlns:xlink="http://www.w3.org/1999/xlink" x="0px" y="0px"
	 width="37.876px" height="31.999px" viewBox="287.066 290.001 37.876 31.999"
	 enable-background="new 287.066 290.001 37.876 31.999" xml:space="preserve">
<path fill="#FFFFFF" d="M292.229,315.824l4.851,5.639c0.62,0.722,1.644,0.713,2.269,0l4.934-5.639h18.932
	c0.954,0,1.729-0.773,1.729-1.734v-22.354c0-0.959-0.758-1.734-1.728-1.734h-34.424c-0.952,0-1.725,0.771-1.725,1.734v22.354
	c0,0.957,0.763,1.734,1.72,1.734H292.229L292.229,315.824z"/>
<path d="M293.949,296.648c0-0.209,0.17-0.381,0.379-0.381h23.354c0.211,0,0.378,0.17,0.378,0.381v1.576
	c0,0.211-0.17,0.383-0.378,0.383h-23.354c-0.212,0-0.379-0.17-0.379-0.383V296.648L293.949,296.648z"/>
<path d="M293.949,301.814c0-0.211,0.17-0.383,0.379-0.383h23.354c0.211,0,0.378,0.17,0.378,0.383v1.576
	c0,0.209-0.17,0.381-0.378,0.381h-23.354c-0.212,0-0.379-0.17-0.379-0.381V301.814L293.949,301.814z"/>
<path d="M293.949,306.979c0-0.211,0.162-0.383,0.359-0.383h14.773c0.196,0,0.359,0.172,0.359,0.383v1.576
	c0,0.209-0.161,0.383-0.359,0.383h-14.773c-0.195,0-0.359-0.172-0.359-0.383V306.979L293.949,306.979z"/>
</svg>
