<?xml version="1.0" encoding="utf-8"?>
<!-- Generator: Adobe Illustrator 16.0.0, SVG Export Plug-In . SVG Version: 6.00 Build 0)  -->
<!DOCTYPE svg PUBLIC "-//W3C//DTD SVG 1.0//EN" "http://www.w3.org/TR/2001/REC-SVG-20010904/DTD/svg10.dtd">
<svg version="1.0" id="Capa_1" xmlns="http://www.w3.org/2000/svg" xmlns:xlink="http://www.w3.org/1999/xlink" x="0px" y="0px"
	 width="10px" height="5px" viewBox="103 70.5 10 5" enable-background="new 103 70.5 10 5" xml:space="preserve">
<path d="M107.559,70.665l-4.375,3.889c-0.123,0.109-0.185,0.239-0.185,0.391c0,0.15,0.062,0.28,0.185,0.391
	c0.124,0.109,0.271,0.165,0.439,0.165l8.75-0.001c0.17,0,0.316-0.055,0.439-0.164c0.124-0.11,0.187-0.24,0.187-0.392
	c0-0.15-0.062-0.28-0.187-0.39l-4.375-3.89c-0.123-0.109-0.27-0.164-0.439-0.164C107.83,70.5,107.683,70.555,107.559,70.665z"/>
</svg>
