<?xml version="1.0" encoding="utf-8"?>
<!-- Generator: Adobe Illustrator 16.0.0, SVG Export Plug-In . SVG Version: 6.00 Build 0)  -->
<!DOCTYPE svg PUBLIC "-//W3C//DTD SVG 1.1//EN" "http://www.w3.org/Graphics/SVG/1.1/DTD/svg11.dtd">
<svg version="1.1" id="Capa_1" xmlns="http://www.w3.org/2000/svg" xmlns:xlink="http://www.w3.org/1999/xlink" x="0px" y="0px"
	 width="37.875px" height="32px" viewBox="287.063 290 37.875 32" enable-background="new 287.063 290 37.875 32"
	 xml:space="preserve">
<path d="M292.228,315.823l4.85,5.639c0.62,0.721,1.642,0.714,2.267,0l4.934-5.639h18.932c0.954,0,1.728-0.772,1.728-1.733v-22.354
	c0-0.959-0.756-1.735-1.726-1.735h-34.424c-0.952,0-1.725,0.773-1.725,1.735v22.354c0,0.957,0.763,1.733,1.72,1.733H292.228
	L292.228,315.823z M293.949,296.649c0-0.21,0.17-0.382,0.379-0.382h23.356c0.211,0,0.378,0.17,0.378,0.382v1.576
	c0,0.21-0.17,0.382-0.378,0.382h-23.356c-0.212,0-0.379-0.17-0.379-0.382V296.649L293.949,296.649z M293.949,301.814
	c0-0.21,0.17-0.383,0.379-0.383h23.356c0.211,0,0.378,0.171,0.378,0.383v1.576c0,0.21-0.17,0.382-0.378,0.382h-23.356
	c-0.212,0-0.379-0.171-0.379-0.382V301.814L293.949,301.814z M293.949,306.978c0-0.21,0.162-0.382,0.36-0.382h14.774
	c0.196,0,0.359,0.171,0.359,0.382v1.576c0,0.21-0.161,0.383-0.359,0.383h-14.774c-0.196,0-0.36-0.171-0.36-0.383V306.978
	L293.949,306.978z"/>
</svg>
