<?xml version="1.0" encoding="utf-8"?>
<!-- Generator: Adobe Illustrator 16.0.0, SVG Export Plug-In . SVG Version: 6.00 Build 0)  -->
<!DOCTYPE svg PUBLIC "-//W3C//DTD SVG 1.0//EN" "http://www.w3.org/TR/2001/REC-SVG-20010904/DTD/svg10.dtd">
<svg version="1.0" id="Layer_1" xmlns="http://www.w3.org/2000/svg" xmlns:xlink="http://www.w3.org/1999/xlink" x="0px" y="0px"
	 width="12px" height="12px" viewBox="0 0 12 12" enable-background="new 0 0 12 12" xml:space="preserve">
<rect x="0.011" fill="#0787C9" width="11.999" height="12"/>
<g>
	<path fill="#FFFFFF" d="M3.429,1C3.94,1,4.354,1.115,4.667,1.343C4.981,1.572,5.227,1.899,5.4,2.324
		C5.574,2.748,5.692,3.26,5.754,3.857c0.062,0.597,0.092,1.265,0.092,2.002c0,0.878-0.039,1.642-0.118,2.29
		C5.649,8.799,5.515,9.334,5.323,9.753c-0.191,0.421-0.447,0.734-0.769,0.939C4.234,10.897,3.827,11,3.336,11H1.01V1H3.429z
		 M3.142,9.515c0.259,0,0.468-0.061,0.625-0.181C3.923,9.212,4.048,9.011,4.141,8.73c0.092-0.279,0.153-0.648,0.184-1.105
		c0.031-0.458,0.047-1.026,0.047-1.709c0-0.569-0.015-1.068-0.042-1.498C4.303,3.988,4.246,3.632,4.16,3.347
		c-0.085-0.285-0.211-0.5-0.379-0.646C3.614,2.557,3.391,2.485,3.11,2.485H2.485v7.029H3.142z"/>
	<path fill="#FFFFFF" d="M10.909,2.652H8.296v2.354h2.459v1.653H8.296v2.688h2.715V11H6.819V1h4.09V2.652z"/>
</g>
</svg>
