<?xml version="1.0" encoding="utf-8"?>
<!-- Generator: Adobe Illustrator 16.0.0, SVG Export Plug-In . SVG Version: 6.00 Build 0)  -->
<!DOCTYPE svg PUBLIC "-//W3C//DTD SVG 1.0//EN" "http://www.w3.org/TR/2001/REC-SVG-20010904/DTD/svg10.dtd">
<svg version="1.0" id="Capa_1" xmlns="http://www.w3.org/2000/svg" xmlns:xlink="http://www.w3.org/1999/xlink" x="0px" y="0px"
	 width="17px" height="14px" viewBox="-2.5 -1 17 14" enable-background="new -2.5 -1 17 14" xml:space="preserve">
<g>
	<g>
		<path fill="#010002" d="M13.723,2.948c-0.518-0.981-1.238-1.752-2.16-2.315c-0.921-0.562-1.951-0.975-3.092-1.238
			C7.331-0.869,6.058-1,4.652-1c-1.06,0-2.056,0.204-2.989,0.61S-0.029,0.52-0.617,1.118c-0.587,0.598-1.048,1.208-1.382,1.83
			C-2.333,3.571-2.5,4.122-2.5,4.6c0,0.981,0.23,1.771,0.691,2.369c0.461,0.598,1.129,0.896,2.004,0.896
			c0.921,0,1.595,0.139,2.021,0.414c0.426,0.276,0.639,0.76,0.639,1.455c0,0.933,0.299,1.71,0.898,2.333C4.353,12.689,5.102,13,6,13
			c2.742,0,4.844-0.646,6.306-1.938C13.77,9.769,14.5,8.238,14.5,6.466C14.5,5.103,14.24,3.93,13.723,2.948z M1.215,5.659
			C0.995,5.886,0.73,6,0.42,6C0.108,6-0.156,5.886-0.375,5.659c-0.219-0.227-0.329-0.502-0.329-0.825
			c0-0.323,0.11-0.599,0.329-0.826C-0.156,3.78,0.108,3.667,0.42,3.667c0.311,0,0.575,0.113,0.795,0.341
			C1.433,4.235,1.542,4.51,1.542,4.833C1.542,5.156,1.433,5.432,1.215,5.659z M3.529,3.2c-0.311,0-0.57-0.114-0.777-0.342
			C2.545,2.631,2.441,2.356,2.441,2.033c0-0.323,0.104-0.598,0.312-0.825C2.959,0.98,3.219,0.866,3.529,0.866
			c0.311,0,0.576,0.114,0.794,0.342C4.543,1.435,4.652,1.71,4.652,2.033c0,0.324-0.109,0.599-0.329,0.826
			C4.105,3.086,3.84,3.2,3.529,3.2z M6.95,10.721C6.686,10.996,6.369,11.135,6,11.135s-0.686-0.139-0.95-0.414
			c-0.265-0.275-0.397-0.604-0.397-0.986c0-0.384,0.132-0.713,0.397-0.989C5.314,8.471,5.631,8.334,6,8.334s0.686,0.137,0.95,0.411
			c0.265,0.276,0.397,0.605,0.397,0.989C7.348,10.116,7.215,10.445,6.95,10.721z M7.918,2.858C7.699,3.086,7.434,3.2,7.123,3.2
			S6.547,3.086,6.329,2.858C6.109,2.631,6,2.356,6,2.033C6,1.71,6.109,1.435,6.329,1.208C6.547,0.98,6.812,0.866,7.123,0.866
			S7.699,0.98,7.918,1.208C8.136,1.435,8.247,1.71,8.247,2.033C8.247,2.356,8.136,2.631,7.918,2.858z M11.476,4.726
			c-0.219,0.227-0.482,0.341-0.794,0.341c-0.31,0-0.575-0.114-0.794-0.341C9.669,4.498,9.559,4.223,9.559,3.9
			c0-0.323,0.11-0.599,0.329-0.826s0.484-0.341,0.794-0.341c0.312,0,0.575,0.114,0.794,0.341c0.22,0.227,0.329,0.502,0.329,0.826
			C11.805,4.223,11.695,4.498,11.476,4.726z"/>
	</g>
</g>
</svg>
