<?xml version="1.0" encoding="utf-8"?>
<!-- Generator: Adobe Illustrator 16.0.0, SVG Export Plug-In . SVG Version: 6.00 Build 0)  -->
<!DOCTYPE svg PUBLIC "-//W3C//DTD SVG 1.1//EN" "http://www.w3.org/Graphics/SVG/1.1/DTD/svg11.dtd">
<svg version="1.1" id="Capa_1" xmlns="http://www.w3.org/2000/svg" xmlns:xlink="http://www.w3.org/1999/xlink" x="0px" y="0px"
	 width="12px" height="12px" viewBox="260.667 260.667 12 12" enable-background="new 260.667 260.667 12 12" xml:space="preserve">
<g>
	<path fill="#FFFFFF" d="M272.557,270.307L272.557,270.307l-3.641-3.641l3.641-3.64v0c0.039-0.039,0.067-0.085,0.086-0.134
		c0.05-0.133,0.021-0.289-0.086-0.396l-1.72-1.719c-0.107-0.107-0.264-0.136-0.396-0.086c-0.049,0.018-0.095,0.046-0.134,0.085
		c0,0,0,0,0,0l-3.641,3.64l-3.641-3.64c0,0,0,0,0,0c-0.039-0.039-0.085-0.067-0.134-0.085c-0.133-0.05-0.289-0.021-0.396,0.086
		l-1.72,1.72c-0.107,0.107-0.135,0.263-0.085,0.396c0.018,0.049,0.046,0.095,0.085,0.134v0l3.641,3.64l-3.641,3.641l0,0
		c-0.039,0.039-0.067,0.085-0.085,0.134c-0.05,0.134-0.021,0.289,0.085,0.396l1.72,1.72c0.107,0.107,0.263,0.136,0.396,0.086
		c0.049-0.019,0.095-0.047,0.134-0.086l0,0l3.641-3.641l3.641,3.641l0,0c0.039,0.039,0.085,0.067,0.134,0.086
		c0.133,0.05,0.289,0.021,0.396-0.086l1.72-1.72c0.107-0.107,0.136-0.263,0.086-0.396
		C272.625,270.392,272.596,270.346,272.557,270.307z"/>
</g>
</svg>
