<?xml version="1.0" encoding="utf-8"?>
<!-- Generator: Adobe Illustrator 16.0.0, SVG Export Plug-In . SVG Version: 6.00 Build 0)  -->
<!DOCTYPE svg PUBLIC "-//W3C//DTD SVG 1.0//EN" "http://www.w3.org/TR/2001/REC-SVG-20010904/DTD/svg10.dtd">
<svg version="1.0" id="Layer_1" xmlns="http://www.w3.org/2000/svg" xmlns:xlink="http://www.w3.org/1999/xlink" x="0px" y="0px"
	 width="40px" height="40px" viewBox="134.492 193.992 40 40" enable-background="new 134.492 193.992 40 40" xml:space="preserve">
<g>
	<circle cx="154.613" cy="214.092" r="19.95"/>
	<g>
		<path fill="#FFFFFF" d="M155.391,226.877h-1.369v-2.809c-1.854-0.208-3.238-0.612-4.15-1.215c-1.609-1.082-2.4-2.927-2.372-5.533
			h3.812c0.132,1.186,0.315,1.981,0.551,2.386c0.367,0.631,1.087,1.04,2.16,1.229v-6.028l-1.144-0.339
			c-1.797-0.527-3.066-1.261-3.805-2.202s-1.108-2.075-1.108-3.402c0-0.875,0.143-1.671,0.431-2.386
			c0.287-0.716,0.689-1.332,1.207-1.85c0.668-0.668,1.412-1.13,2.23-1.384c0.499-0.159,1.229-0.277,2.188-0.353v-1.878h1.369v1.906
			c1.527,0.122,2.726,0.499,3.598,1.129c1.583,1.008,2.402,2.641,2.459,4.899h-3.713c-0.075-0.838-0.214-1.449-0.419-1.836
			c-0.353-0.668-0.994-1.035-1.924-1.101v5.379c2.229,0.771,3.729,1.453,4.497,2.047c1.265,0.987,1.897,2.381,1.897,4.178
			c0,2.372-0.871,4.095-2.612,5.167c-1.063,0.659-2.324,1.045-3.783,1.158V226.877L155.391,226.877z M154.022,206.138
			c-0.819,0.02-1.426,0.238-1.821,0.657s-0.593,0.99-0.593,1.715c0,0.791,0.297,1.417,0.89,1.878
			c0.33,0.254,0.837,0.489,1.525,0.705V206.138L154.022,206.138z M155.391,220.891c0.734-0.094,1.271-0.264,1.605-0.508
			c0.586-0.434,0.879-1.182,0.879-2.245c0-0.81-0.274-1.449-0.823-1.92c-0.325-0.272-0.879-0.556-1.66-0.848L155.391,220.891
			L155.391,220.891z"/>
	</g>
</g>
</svg>
