<?xml version="1.0" encoding="utf-8"?>
<!-- Generator: Adobe Illustrator 16.0.0, SVG Export Plug-In . SVG Version: 6.00 Build 0)  -->
<!DOCTYPE svg PUBLIC "-//W3C//DTD SVG 1.1//EN" "http://www.w3.org/Graphics/SVG/1.1/DTD/svg11.dtd">
<svg version="1.1" id="Capa_1" xmlns="http://www.w3.org/2000/svg" xmlns:xlink="http://www.w3.org/1999/xlink" x="0px" y="0px"
	 width="10px" height="10px" viewBox="261.667 261.667 10 10" enable-background="new 261.667 261.667 10 10" xml:space="preserve">
<g>
	<path fill="#A1ABB2" d="M271.576,269.701C271.575,269.701,271.575,269.701,271.576,269.701l-3.034-3.034l3.033-3.034
		c0,0,0,0,0.001,0c0.032-0.033,0.056-0.071,0.071-0.111c0.041-0.111,0.018-0.241-0.072-0.331l-1.433-1.433
		c-0.09-0.089-0.22-0.113-0.33-0.071c-0.041,0.015-0.079,0.039-0.111,0.071H269.7l-3.033,3.034l-3.034-3.034l0,0
		c-0.033-0.033-0.071-0.056-0.112-0.071c-0.111-0.042-0.241-0.018-0.33,0.071l-1.433,1.433c-0.089,0.089-0.113,0.219-0.072,0.331
		c0.015,0.041,0.039,0.079,0.072,0.111l0,0l3.034,3.034l-3.034,3.034l0,0c-0.033,0.032-0.056,0.07-0.072,0.111
		c-0.041,0.111-0.018,0.241,0.072,0.33l1.433,1.434c0.089,0.089,0.219,0.112,0.33,0.071c0.041-0.016,0.079-0.039,0.112-0.071l0,0
		l3.034-3.034l3.033,3.034h0.001c0.032,0.032,0.07,0.056,0.111,0.071c0.11,0.041,0.241,0.018,0.33-0.071l1.433-1.434
		c0.09-0.089,0.113-0.219,0.072-0.33C271.631,269.771,271.608,269.733,271.576,269.701z"/>
</g>
</svg>
