<?xml version="1.0" encoding="utf-8"?>
<!-- Generator: Adobe Illustrator 16.0.0, SVG Export Plug-In . SVG Version: 6.00 Build 0)  -->
<!DOCTYPE svg PUBLIC "-//W3C//DTD SVG 1.0//EN" "http://www.w3.org/TR/2001/REC-SVG-20010904/DTD/svg10.dtd">
<svg version="1.0" id="Layer_1" xmlns="http://www.w3.org/2000/svg" xmlns:xlink="http://www.w3.org/1999/xlink" x="0px" y="0px"
	 width="40px" height="40px" viewBox="0 0 40 40" enable-background="new 0 0 40 40" xml:space="preserve">
<g>
	<circle cx="9.146" cy="24.637" r="1.679"/>
	<path d="M20,0.05C8.982,0.05,0.05,8.982,0.05,20c0,11.018,8.932,19.95,19.95,19.95c11.019,0,19.95-8.932,19.95-19.95
		C39.95,8.982,31.019,0.05,20,0.05z M32.621,16.882l-0.479,0.195l-1.03-0.588l-0.594,1.394l-0.957,0.392l-0.81-0.051l-0.472,0.779
		l-1.55-0.606l-0.894,1.683l-0.72,0.293l-1.524-0.549l-0.313,1.164l-0.239,0.099l-1.072-0.688l-0.353,1.292l-1.685-0.025l0.44,1.075
		l-1.713,0.784c0.007,2.578-1.487,4.989-4.021,6.026c-3.339,1.368-7.135-0.248-8.503-3.586c-1.368-3.343,0.25-7.137,3.59-8.504
		c2.504-1.026,5.304-0.346,7.103,1.429l16.382-6.71l0.343,0.836L32.621,16.882z"/>
</g>
</svg>
