<?xml version="1.0" encoding="utf-8"?>
<!-- Generator: Adobe Illustrator 16.0.0, SVG Export Plug-In . SVG Version: 6.00 Build 0)  -->
<!DOCTYPE svg PUBLIC "-//W3C//DTD SVG 1.0//EN" "http://www.w3.org/TR/2001/REC-SVG-20010904/DTD/svg10.dtd">
<svg version="1.0" id="Layer_1" xmlns="http://www.w3.org/2000/svg" xmlns:xlink="http://www.w3.org/1999/xlink" x="0px" y="0px"
	 width="38px" height="38px" viewBox="0 0 38 38" enable-background="new 0 0 38 38" xml:space="preserve">
<path fill="#FFFFFF" d="M18.998,0.334C8.703,0.334,0.333,8.708,0.333,19c0,10.289,8.369,18.666,18.665,18.666
	S37.667,29.29,37.667,19C37.667,8.708,29.293,0.333,18.998,0.334 M8.87,10.4c0.722,0,1.303,0.582,1.303,1.304
	c0,0.719-0.581,1.302-1.303,1.302c-0.719,0-1.303-0.583-1.303-1.302C7.568,10.982,8.151,10.4,8.87,10.4 M11.016,14.691
	c-0.712,0.015-1.256,0.028-1.38,0.74v8.561c0.124,0.711,0.667,0.729,1.38,0.74v0.401H6.72v-0.401
	c0.714-0.015,1.252-0.029,1.384-0.74v-8.561c-0.132-0.713-0.669-0.726-1.384-0.74v-0.396h4.297L11.016,14.691L11.016,14.691z
	 M24.839,14.697c-0.828,0.016-1.407,0.028-1.407,1.116v7.8c0,1.09,0.578,1.104,1.407,1.119v0.379h-2.926l0,0h-0.009h0.009
	L21.9,19.836h-6.28l-0.003,5.283c-0.001-0.002-2.932,0.004-2.932,0.004v-0.391c0.822-0.019,1.414-0.029,1.414-1.119v-7.8
	c0-1.088-0.591-1.105-1.414-1.122v-0.418h2.932l0.003,4.924h6.282l0.016-4.911c0.299,0.003,2.221,0,2.924,0L24.839,14.697z
	 M28.35,25.37c-0.809,0-1.646-0.187-2.377-0.527l-0.312-2.27h0.359c0.264,1.163,1.135,2.299,2.424,2.299
	c1.195,0,2.132-0.838,2.132-2.063c0-2.894-4.604-2.035-4.604-5.707c0-2.004,1.434-3.047,3.326-3.047c0.639,0,1.278,0.146,1.898,0.24
	l0.248,1.988h-0.357c-0.172-1.092-0.885-1.725-2.006-1.725c-1.18,0-1.865,0.848-1.865,1.985c0,2.892,4.788,2.101,4.788,5.671
	C32.002,24.236,30.184,25.37,28.35,25.37"/>
<path fill="#FFFFFF" d="M18.999,0.05C8.546,0.05,0.051,8.551,0.051,19c0,10.441,8.496,18.95,18.948,18.95
	c10.451,0,18.952-8.509,18.952-18.95C37.951,8.551,29.45,0.048,18.999,0.05 M8.716,10.271c0.733,0,1.322,0.59,1.322,1.323
	c0,0.729-0.589,1.321-1.322,1.321c-0.73,0-1.323-0.593-1.323-1.321C7.395,10.861,7.986,10.271,8.716,10.271 M10.895,14.625
	c-0.724,0.016-1.276,0.028-1.401,0.752v8.688c0.125,0.727,0.677,0.74,1.401,0.754v0.408H6.534v-0.408
	c0.725-0.014,1.271-0.027,1.405-0.754v-8.688c-0.134-0.724-0.68-0.736-1.405-0.752v-0.403h4.362L10.895,14.625L10.895,14.625z
	 M24.928,14.632c-0.841,0.014-1.43,0.028-1.43,1.131v7.917c0,1.11,0.588,1.125,1.43,1.139v0.386h-2.971l0,0H21.95h0.008
	l-0.013-5.354h-6.376l-0.003,5.363c-0.001-0.005-2.976,0.005-2.976,0.005V24.82c0.835-0.02,1.436-0.028,1.436-1.139v-7.917
	c0-1.103-0.6-1.122-1.436-1.138v-0.424h2.976l0.003,4.999h6.376l0.017-4.985c0.304,0.002,2.255,0,2.97,0L24.928,14.632z
	 M28.491,25.465c-0.819,0-1.671-0.188-2.413-0.533l-0.316-2.306h0.364c0.269,1.181,1.151,2.333,2.461,2.333
	c1.214,0,2.164-0.854,2.164-2.098c0-2.935-4.675-2.064-4.675-5.79c0-2.036,1.455-3.094,3.377-3.094c0.648,0,1.298,0.147,1.928,0.244
	l0.251,2.019H31.27c-0.174-1.108-0.897-1.75-2.037-1.75c-1.195,0-1.893,0.86-1.893,2.015c0,2.935,4.861,2.131,4.861,5.758
	C32.201,24.312,30.352,25.465,28.491,25.465"/>
</svg>
