<?xml version="1.0" encoding="utf-8"?>
<!-- Generator: Adobe Illustrator 16.0.0, SVG Export Plug-In . SVG Version: 6.00 Build 0)  -->
<!DOCTYPE svg PUBLIC "-//W3C//DTD SVG 1.0//EN" "http://www.w3.org/TR/2001/REC-SVG-20010904/DTD/svg10.dtd">
<svg version="1.0" id="Layer_1" xmlns="http://www.w3.org/2000/svg" xmlns:xlink="http://www.w3.org/1999/xlink" x="0px" y="0px"
	 width="12px" height="12px" viewBox="0 0 12 12" enable-background="new 0 0 12 12" xml:space="preserve">
<rect x="0.001" y="0.001" fill="#0787C9" width="11.999" height="11.999"/>
<g>
	<path fill="#FFFFFF" d="M5.272,8.09c0,1.049-0.187,1.796-0.562,2.241c-0.373,0.446-0.943,0.67-1.712,0.67
		c-0.401,0-0.73-0.071-0.988-0.214c-0.257-0.143-0.462-0.345-0.613-0.607C1.246,9.918,1.142,9.612,1.086,9.263
		c-0.057-0.35-0.085-0.718-0.085-1.104V7.731h1.396v0.304c0,0.523,0.044,0.912,0.133,1.165c0.087,0.253,0.269,0.38,0.544,0.38
		c0.274,0,0.456-0.127,0.545-0.38C3.706,8.947,3.75,8.559,3.75,8.035V1h1.522V8.09z"/>
	<path fill="#FFFFFF" d="M8.93,1c0.387,0,0.713,0.084,0.978,0.254c0.265,0.171,0.477,0.394,0.64,0.669
		c0.161,0.276,0.278,0.591,0.35,0.945c0.069,0.354,0.104,0.715,0.104,1.083c0,0.505-0.058,0.947-0.174,1.324
		C10.711,5.653,10.549,5.961,10.34,6.2c-0.207,0.239-0.459,0.419-0.755,0.538c-0.296,0.12-0.624,0.18-0.983,0.18H7.788v3.931H6.265
		V1H8.93z M8.464,5.456c0.303,0,0.548-0.12,0.734-0.359c0.188-0.239,0.281-0.611,0.281-1.117c0-0.497-0.081-0.874-0.244-1.131
		C9.074,2.591,8.803,2.462,8.422,2.462H7.788v2.993H8.464z"/>
</g>
</svg>
