<?xml version="1.0" encoding="utf-8"?>
<!-- Generator: Adobe Illustrator 16.0.0, SVG Export Plug-In . SVG Version: 6.00 Build 0)  -->
<!DOCTYPE svg PUBLIC "-//W3C//DTD SVG 1.1//EN" "http://www.w3.org/Graphics/SVG/1.1/DTD/svg11.dtd">
<svg version="1.1" id="Layer_1" xmlns="http://www.w3.org/2000/svg" xmlns:xlink="http://www.w3.org/1999/xlink" x="0px" y="0px"
	 width="16px" height="10px" viewBox="0 0 16 10" enable-background="new 0 0 16 10" xml:space="preserve">
<path fill="#DBDCDE" d="M8.924,9.623l6.686-6.638C15.87,2.739,16,2.437,16,2.068c0-0.367-0.13-0.672-0.391-0.916l-0.771-0.773
	C14.586,0.128,14.278,0,13.916,0c-0.354,0-0.667,0.127-0.936,0.379L8.001,5.327L3.009,0.379C2.756,0.128,2.447,0,2.084,0
	C1.729,0,1.418,0.127,1.15,0.379L0.38,1.152C0.128,1.402,0,1.709,0,2.068c0,0.36,0.127,0.666,0.38,0.917l6.688,6.638
	C7.334,9.874,7.646,10,8.001,10C8.363,10,8.67,9.874,8.924,9.623z"/>
</svg>
