<?xml version="1.0" encoding="utf-8"?>
<!-- Generator: Adobe Illustrator 16.0.0, SVG Export Plug-In . SVG Version: 6.00 Build 0)  -->
<!DOCTYPE svg PUBLIC "-//W3C//DTD SVG 1.0//EN" "http://www.w3.org/TR/2001/REC-SVG-20010904/DTD/svg10.dtd">
<svg version="1.0" id="Layer_1" xmlns="http://www.w3.org/2000/svg" xmlns:xlink="http://www.w3.org/1999/xlink" x="0px" y="0px"
	 width="12px" height="12px" viewBox="0 0 12 12" enable-background="new 0 0 12 12" xml:space="preserve">
<rect fill="#0787C9" width="12" height="12"/>
<g>
	<path fill="#FFFFFF" d="M5.178,2.653h-2.67v2.354h2.514v1.653H2.508v2.688h2.775V11H1V1h4.178V2.653z"/>
	<path fill="#FFFFFF" d="M9.598,7.85h0.02V1H11v10H9.283L7.44,3.997H7.419V11H6.037V1h1.736L9.598,7.85z"/>
</g>
<rect fill="#0787C9" width="12" height="12"/>
<rect y="0" fill="#0787C9" width="11.999" height="12"/>
<g>
	<path fill="#FFFFFF" d="M5.178,2.653h-2.67v2.354h2.514v1.653H2.508v2.688h2.775V11H1V1h4.178V2.653z"/>
	<path fill="#FFFFFF" d="M9.598,7.85h0.02V1H11v10H9.283L7.44,3.997H7.419V11H6.037V1h1.736L9.598,7.85z"/>
</g>
</svg>
