<?xml version="1.0" encoding="utf-8"?>
<!-- Generator: Adobe Illustrator 16.0.0, SVG Export Plug-In . SVG Version: 6.00 Build 0)  -->
<!DOCTYPE svg PUBLIC "-//W3C//DTD SVG 1.1//EN" "http://www.w3.org/Graphics/SVG/1.1/DTD/svg11.dtd">
<svg version="1.1" id="Layer_1" xmlns="http://www.w3.org/2000/svg" xmlns:xlink="http://www.w3.org/1999/xlink" x="0px" y="0px"
	 width="20px" height="20px" viewBox="0 0 20 20" enable-background="new 0 0 20 20" xml:space="preserve">
<path d="M20,16c0,2.209-1.791,4-4,4H4c-2.209,0-4-1.791-4-4V4c0-2.209,1.791-4,4-4h12c2.209,0,4,1.791,4,4V16z"/>
<g id="Menu">
	<path fill="#FFFFFF" d="M4.213,7.233h11.572c0.696,0,1.258-0.564,1.258-1.258c0-0.695-0.562-1.257-1.258-1.257H4.213
		c-0.694,0-1.257,0.562-1.257,1.257C2.957,6.669,3.519,7.233,4.213,7.233z M15.785,8.742H4.213c-0.694,0-1.257,0.562-1.257,1.257
		s0.562,1.256,1.257,1.256h11.572c0.696,0,1.258-0.562,1.258-1.256S16.481,8.742,15.785,8.742z M15.785,12.768H4.213
		c-0.694,0-1.257,0.561-1.257,1.258c0,0.695,0.562,1.258,1.257,1.258h11.572c0.696,0,1.258-0.562,1.258-1.258
		C17.043,13.328,16.481,12.768,15.785,12.768z"/>
</g>
</svg>
